<svg xmlns="http://www.w3.org/2000/svg" version="1.1" style="font-family:Lato, &#x27;Helvetica Neue&#x27;, Helvetica, Arial, sans-serif;font-size:18px;background-color:white;text-rendering:optimizeLegibility;-webkit-font-smoothing:antialiased" width="850" height="600" viewBox="0 0 850 600"><g class="HeaderView"><g transform="translate(774, 15) scale(0.29)"><svg width="210" height="120" viewBox="0 0 210 120" fill="none" xmlns="http://www.w3.org/2000/svg">
<g clip-path="url(#clip0)">
  <path d="M0 0h210v107.89H0V0z" fill="#002147" />
  <path
    d="M40.98 32.25c0 2.36-.38 4.53-1.12 6.51a14.26 14.26 0 01-8.1 8.4c-1.9.78-4.02 1.17-6.34 1.17-2.31 0-4.42-.39-6.33-1.17a14.31 14.31 0 01-8.08-8.4 18.29 18.29 0 01-1.12-6.51c0-2.36.38-4.53 1.12-6.5.75-1.97 1.8-3.67 3.17-5.1 1.37-1.43 3-2.55 4.9-3.34 1.92-.8 4.03-1.19 6.34-1.19 2.32 0 4.43.4 6.34 1.19 1.92.8 3.56 1.9 4.93 3.34a14.87 14.87 0 013.17 5.1 18.1 18.1 0 011.12 6.5zm-4.38 0c0-1.94-.26-3.68-.8-5.22a10.91 10.91 0 00-2.24-3.89 9.68 9.68 0 00-3.52-2.46 11.95 11.95 0 00-4.62-.86c-1.68 0-3.21.28-4.6.86a9.88 9.88 0 00-3.54 2.46 10.91 10.91 0 00-2.24 3.9c-.53 1.53-.8 3.27-.8 5.2 0 1.94.27 3.68.8 5.22a11.17 11.17 0 002.24 3.9 10.01 10.01 0 003.55 2.44c1.38.56 2.9.83 4.6.83 1.7 0 3.24-.27 4.61-.83a9.8 9.8 0 003.52-2.44 11.17 11.17 0 002.25-3.9c.53-1.54.8-3.28.8-5.21zm26.22-6.54V48H60.5c-.56 0-.9-.27-1.05-.81l-.31-2.4a12.45 12.45 0 01-3.26 2.6c-1.2.64-2.58.96-4.13.96-1.22 0-2.3-.2-3.24-.6a6.52 6.52 0 01-2.33-1.7 7.37 7.37 0 01-1.43-2.67c-.3-1.04-.46-2.2-.46-3.45V25.7h3.91v14.22c0 1.68.38 2.99 1.15 3.91.77.93 1.96 1.39 3.54 1.39 1.16 0 2.24-.27 3.23-.82a10.42 10.42 0 002.8-2.28V25.7h3.91zm8.61 4.47a9.94 9.94 0 012.6-3.56 5.64 5.64 0 013.76-1.3c.47 0 .92.05 1.34.15.44.1.83.27 1.17.49L80 28.88c-.09.37-.3.55-.66.55-.2 0-.5-.04-.9-.13a6.21 6.21 0 00-3.24.18c-.54.2-1.03.5-1.47.92-.42.4-.81.9-1.17 1.5-.33.58-.64 1.26-.92 2.02V48h-3.94V25.71h2.25c.42 0 .72.08.88.25.16.16.27.44.33.83l.26 3.39zm61.16-13.7L122.75 48h-3.82l-7.99-24.05a21.95 21.95 0 01-.42-1.58 38.36 38.36 0 01-.44 1.58L102.05 48h-3.83L88.4 16.47h3.54c.38 0 .7.1.95.29.26.2.43.43.5.73l6.52 21.9c.1.4.2.83.28 1.28.1.46.2.94.29 1.46l.3-1.46c.12-.47.25-.9.38-1.27l7.41-21.91c.1-.25.26-.48.51-.69.27-.22.58-.33.95-.33h1.23c.38 0 .69.1.92.29.24.2.41.43.53.73l7.4 21.9a28.4 28.4 0 01.68 2.62 29.52 29.52 0 01.52-2.61l6.54-21.91c.07-.27.23-.5.48-.7.27-.21.58-.32.95-.32h3.32zm9.35 8.88c1.63 0 3.1.27 4.4.82a9.43 9.43 0 015.46 5.94c.5 1.4.74 2.98.74 4.73 0 1.76-.25 3.34-.74 4.75a9.43 9.43 0 01-5.46 5.92c-1.3.52-2.77.79-4.4.79-1.64 0-3.12-.27-4.44-.8a9.42 9.42 0 01-3.35-2.3c-.92-1-1.63-2.2-2.13-3.61-.49-1.41-.73-3-.73-4.75s.24-3.33.73-4.73c.5-1.43 1.2-2.64 2.13-3.63.93-1 2.04-1.77 3.35-2.31 1.32-.55 2.8-.82 4.44-.82zm0 19.89c2.2 0 3.84-.73 4.93-2.2 1.08-1.48 1.63-3.54 1.63-6.18 0-2.66-.55-4.72-1.63-6.2-1.09-1.49-2.73-2.23-4.93-2.23-1.12 0-2.09.2-2.93.57-.82.39-1.5.94-2.06 1.65-.55.72-.96 1.61-1.24 2.67-.26 1.04-.4 2.22-.4 3.54 0 2.64.55 4.7 1.64 6.18 1.1 1.47 2.76 2.2 4.99 2.2zm17.97-15.07a9.94 9.94 0 012.6-3.56 5.64 5.64 0 013.76-1.3c.47 0 .91.05 1.34.15.44.1.83.27 1.16.49l-.28 2.92c-.09.37-.31.55-.66.55-.2 0-.5-.04-.9-.13a6.2 6.2 0 00-3.24.18c-.54.2-1.03.5-1.47.92-.43.4-.82.9-1.17 1.5a13.1 13.1 0 00-.92 2.02V48h-3.94V25.71h2.24c.43 0 .72.08.88.25.17.16.28.44.33.83l.27 3.39zm15.04-14.59V48h-3.92V15.6h3.92zm19.55 15.43a6.22 6.22 0 00-2.38-2.05 6.7 6.7 0 00-2.86-.6c-2.07 0-3.66.75-4.77 2.23-1.12 1.48-1.68 3.6-1.68 6.33 0 1.46.13 2.7.38 3.74a7.29 7.29 0 001.1 2.56 4.35 4.35 0 001.78 1.45c.7.3 1.5.46 2.4.46 1.29 0 2.41-.3 3.36-.88a9.6 9.6 0 002.67-2.49V31.02zm3.91-15.43V48h-2.33c-.56 0-.9-.27-1.06-.81l-.35-2.71a12.13 12.13 0 01-3.25 2.77 8.28 8.28 0 01-4.23 1.06 7.31 7.31 0 01-6.14-2.9c-.73-.96-1.3-2.15-1.69-3.57a18.35 18.35 0 01.07-9.48 11.29 11.29 0 011.89-3.7 8.7 8.7 0 017.06-3.34 7.96 7.96 0 016.12 2.62V15.59h3.91zM46.61 70.71V93H42.7V70.71h3.91zm.84-7c0 .39-.08.75-.24 1.09-.15.32-.35.61-.62.88-.25.25-.55.44-.9.59a2.67 2.67 0 01-2.16 0 2.9 2.9 0 01-1.45-1.47 2.67 2.67 0 010-2.16c.15-.35.35-.65.6-.9.25-.27.53-.47.85-.62a2.67 2.67 0 012.16 0c.35.15.65.35.9.62.27.25.47.55.62.9.16.34.24.7.24 1.08zm7.97 10.24c.49-.54 1-1.04 1.54-1.48a9.85 9.85 0 013.66-1.84 8.96 8.96 0 015.43.35c.94.4 1.72.97 2.33 1.71.63.74 1.11 1.62 1.43 2.67.32 1.04.49 2.19.49 3.45V93h-3.94V78.81c0-1.69-.4-3-1.17-3.92-.76-.93-1.93-1.4-3.5-1.4-1.15 0-2.24.27-3.25.83-1 .56-1.92 1.31-2.77 2.27V93h-3.94V70.71h2.35c.56 0 .9.28 1.04.82l.3 2.42zm57.7 3.3c0 2.36-.37 4.5-1.11 6.44a14.3 14.3 0 01-3.17 4.98c-1.37 1.37-3 2.45-4.93 3.2-1.9.76-4.02 1.13-6.33 1.13H85.8V61.47h11.77c2.31 0 4.42.39 6.33 1.15a13.8 13.8 0 018.1 8.18 17.75 17.75 0 011.12 6.45zm-4.37 0c0-1.94-.26-3.67-.8-5.2a10.94 10.94 0 00-2.23-3.87 9.57 9.57 0 00-3.53-2.42 12.23 12.23 0 00-4.61-.83h-7.5v24.62h7.5c1.7 0 3.24-.28 4.61-.84a9.7 9.7 0 003.53-2.4 10.94 10.94 0 002.24-3.87c.53-1.53.8-3.26.8-5.2zm19.8 5.72c-1.8.06-3.34.2-4.62.44-1.26.22-2.3.51-3.1.88-.8.36-1.37.8-1.74 1.3-.35.5-.53 1.05-.53 1.67 0 .58.1 1.1.3 1.52a3 3 0 00.76 1.05c.34.27.73.46 1.17.6.45.11.94.17 1.45.17a7.28 7.28 0 003.5-.81 11.95 11.95 0 002.82-2.2v-4.62zm-12.65-9.11a12.73 12.73 0 013.98-2.66c1.43-.59 3-.88 4.73-.88 1.25 0 2.36.2 3.33.61a6.81 6.81 0 013.94 4.38c.33 1.04.5 2.19.5 3.43V93h-1.74a1.8 1.8 0 01-.88-.18c-.2-.13-.36-.38-.48-.74l-.44-2.12c-.59.55-1.16 1.03-1.72 1.46a9.48 9.48 0 01-3.74 1.7c-.69.15-1.46.23-2.3.23-.87 0-1.69-.12-2.45-.35a5.34 5.34 0 01-3.34-2.93 6.64 6.64 0 01-.49-2.64c0-.88.25-1.72.73-2.53a6.33 6.33 0 012.35-2.17c1.09-.63 2.5-1.15 4.25-1.54 1.75-.41 3.89-.65 6.42-.7v-1.75c0-1.73-.37-3.03-1.12-3.91-.75-.9-1.84-1.34-3.28-1.34-.97 0-1.78.12-2.44.37-.64.23-1.2.5-1.7.81l-1.23.82c-.33.23-.67.35-1 .35-.27 0-.5-.07-.69-.2a2.1 2.1 0 01-.48-.53l-.7-1.25zm27.67 19.5c-1.76 0-3.12-.5-4.07-1.48-.94-.98-1.41-2.4-1.41-4.25V74h-2.68a.9.9 0 01-.6-.2c-.16-.14-.24-.36-.24-.66v-1.56l3.65-.46.9-6.89c.05-.22.14-.4.29-.52a.88.88 0 01.62-.22H142v7.67h6.44V74h-6.44v13.38c0 .94.22 1.63.68 2.09.45.45 1.04.68 1.76.68a3.21 3.21 0 001.85-.53l.55-.35c.16-.12.3-.18.41-.18.2 0 .4.13.55.38l1.15 1.87a7.45 7.45 0 01-2.44 1.5c-.96.35-1.94.52-2.95.52zm19.68-10.4c-1.8.07-3.34.21-4.62.45-1.26.22-2.3.51-3.1.88-.8.36-1.37.8-1.74 1.3-.35.5-.53 1.05-.53 1.67 0 .58.1 1.1.3 1.52.18.42.44.77.76 1.05.34.27.73.46 1.17.6.45.11.94.17 1.45.17a7.3 7.3 0 003.5-.81 12.04 12.04 0 002.82-2.2v-4.62zm-12.65-9.1a12.72 12.72 0 013.99-2.66c1.42-.59 3-.88 4.72-.88 1.25 0 2.36.2 3.33.61a6.81 6.81 0 013.94 4.38c.33 1.04.5 2.19.5 3.43V93h-1.74a1.8 1.8 0 01-.88-.18c-.2-.13-.36-.38-.48-.74l-.44-2.12c-.59.55-1.16 1.03-1.72 1.46a9.48 9.48 0 01-3.74 1.7c-.69.15-1.46.23-2.3.23-.87 0-1.69-.12-2.45-.35a5.33 5.33 0 01-3.34-2.93 6.62 6.62 0 01-.49-2.64c0-.88.25-1.72.73-2.53a6.33 6.33 0 012.35-2.17c1.09-.63 2.5-1.15 4.25-1.54 1.74-.41 3.89-.65 6.42-.7v-1.75c0-1.73-.37-3.03-1.12-3.91-.75-.9-1.84-1.34-3.28-1.34-.97 0-1.78.12-2.44.37-.64.23-1.2.5-1.7.81-.46.3-.87.57-1.22.82-.34.23-.68.35-1.02.35-.26 0-.49-.07-.68-.2-.19-.14-.35-.32-.48-.53l-.7-1.25z"
    fill="#fff"
  />
  <path fill="#D42B21" d="M0 106.79h210V120H0z" />
</g>
<defs>
  <clipPath id="clip0"><path fill="#fff" d="M0 0h210v120H0z" /></clipPath>
</defs>
</svg></g><a href="https://ourworldindata.org/grapher/total-cases-covid-19?yScale=log&amp;time=2020-03-02..&amp;country=~IDN" style="font-family:&quot;Playfair Display&quot;, Georgia, &quot;Times New Roman&quot;, serif" target="_blank"><text font-size="25.20" x="15.0" y="35.2" fill="#555"><tspan x="15" y="35.160000000000004">Total confirmed COVID-19 cases</tspan></text></a><text font-size="14.40" x="15.0" y="55.7" fill="#666"><tspan x="15" y="55.72">The number of confirmed cases is lower than the number of total cases. The main reason for this is limited testing.</tspan></text></g><g class="LineChart"><defs><clipPath id="boundsClip-2"><rect x="59.896" y="0" width="830" height="955.8"></rect></clipPath></defs><g class="AxisBoxView"><g class="HorizontalAxis"><line x1="69.9" y1="535.3" x2="69.9" y2="539.3" stroke="#ccc"></line><line x1="196.2" y1="535.3" x2="196.2" y2="539.3" stroke="#ccc"></line><line x1="329.1" y1="535.3" x2="329.1" y2="539.3" stroke="#ccc"></line><line x1="462" y1="535.3" x2="462" y2="539.3" stroke="#ccc"></line><line x1="594.9" y1="535.3" x2="594.9" y2="539.3" stroke="#ccc"></line><line x1="741.1" y1="535.3" x2="741.1" y2="539.3" stroke="#ccc"></line><text x="69.9" y="556.5" fill="#666" text-anchor="middle" font-size="16.2">Mar 2, 2020</text><text x="196.2" y="556.5" fill="#666" text-anchor="middle" font-size="16.2">Mar 21</text><text x="329.1" y="556.5" fill="#666" text-anchor="middle" font-size="16.2">Apr 10</text><text x="462" y="556.5" fill="#666" text-anchor="middle" font-size="16.2">Apr 30</text><text x="594.9" y="556.5" fill="#666" text-anchor="middle" font-size="16.2">May 20</text><text x="741.1" y="556.5" fill="#666" text-anchor="middle" font-size="16.2">Jun 11, 2020</text></g><g class="VerticalAxis"><text x="64.90" y="459.9" fill="#666" dominant-baseline="middle" text-anchor="end" font-size="16.2">10</text><text x="64.90" y="352.1" fill="#666" dominant-baseline="middle" text-anchor="end" font-size="16.2">100</text><text x="64.90" y="244.2" fill="#666" dominant-baseline="middle" text-anchor="end" font-size="16.2">1,000</text><text x="64.90" y="136.4" fill="#666" dominant-baseline="middle" text-anchor="end" font-size="16.2">10,000</text></g><g class="AxisGridLines"><line x1="69.90" y1="459.9" x2="741.14" y2="459.9" stroke="#ddd" stroke-dasharray="3,2"></line><line x1="69.90" y1="352.1" x2="741.14" y2="352.1" stroke="#ddd" stroke-dasharray="3,2"></line><line x1="69.90" y1="244.2" x2="741.14" y2="244.2" stroke="#ddd" stroke-dasharray="3,2"></line><line x1="69.90" y1="136.4" x2="741.14" y2="136.4" stroke="#ddd" stroke-dasharray="3,2"></line></g></g><g clip-path="url(#boundsClip-2)"><g class="HeightedLegend" style="cursor:pointer"><g class="legendMark"><rect x="741.14" y="78.6" width="93.86000000000001" height="13.5" fill="#fff" opacity="0"></rect><text font-size="13.50" x="745.1" y="89.4" fill="#3C4E66"><tspan x="745.14" y="89.39999999999999">Indonesia</tspan></text></g></g><g class="Lines"><rect x="70" y="79" width="671" height="457" fill="rgba(255,255,255,0)" opacity="0"></rect><g class="key-Indonesia_0"><path stroke="#3C4E66" stroke-linecap="round" d="M70 535L103 503L116 484L130 430L136 403L150 369L156 354L163 345L170 338L176 327L183 327L190 314L196 299L203 282L210 275L216 270L223 262L229 255L236 250L243 242L249 238L256 233L263 228L269 224L276 220L283 217L289 212L296 210L303 206L309 202L316 197L322 193L329 188L336 185L342 181L349 177L356 173L362 170L369 168L376 164L382 161L389 158L396 156L402 155L409 152L416 150L422 148L429 146L435 143L442 142L449 141L455 139L462 137L469 136L475 134L482 133L489 131L495 130L502 128L509 126L515 125L522 124L529 122L535 121L542 120L548 118L555 116L562 114L568 113L575 111L582 110L588 109L595 108L602 106L608 104L615 102L622 100L628 99L635 98L642 97L648 96L655 94L661 93L668 92L675 91L681 90L688 89L695 88L701 87L708 86L715 84L721 83L728 82L735 80L741 79" fill="none" stroke-width="1.5"></path><g fill="#3C4E66"><circle cx="70" cy="535" r="2"></circle><circle cx="103" cy="503" r="2"></circle><circle cx="116" cy="484" r="2"></circle><circle cx="130" cy="430" r="2"></circle><circle cx="136" cy="403" r="2"></circle><circle cx="150" cy="369" r="2"></circle><circle cx="156" cy="354" r="2"></circle><circle cx="163" cy="345" r="2"></circle><circle cx="170" cy="338" r="2"></circle><circle cx="176" cy="327" r="2"></circle><circle cx="183" cy="327" r="2"></circle><circle cx="190" cy="314" r="2"></circle><circle cx="196" cy="299" r="2"></circle><circle cx="203" cy="282" r="2"></circle><circle cx="210" cy="275" r="2"></circle><circle cx="216" cy="270" r="2"></circle><circle cx="223" cy="262" r="2"></circle><circle cx="229" cy="255" r="2"></circle><circle cx="236" cy="250" r="2"></circle><circle cx="243" cy="242" r="2"></circle><circle cx="249" cy="238" r="2"></circle><circle cx="256" cy="233" r="2"></circle><circle cx="263" cy="228" r="2"></circle><circle cx="269" cy="224" r="2"></circle><circle cx="276" cy="220" r="2"></circle><circle cx="283" cy="217" r="2"></circle><circle cx="289" cy="212" r="2"></circle><circle cx="296" cy="210" r="2"></circle><circle cx="303" cy="206" r="2"></circle><circle cx="309" cy="202" r="2"></circle><circle cx="316" cy="197" r="2"></circle><circle cx="322" cy="193" r="2"></circle><circle cx="329" cy="188" r="2"></circle><circle cx="336" cy="185" r="2"></circle><circle cx="342" cy="181" r="2"></circle><circle cx="349" cy="177" r="2"></circle><circle cx="356" cy="173" r="2"></circle><circle cx="362" cy="170" r="2"></circle><circle cx="369" cy="168" r="2"></circle><circle cx="376" cy="164" r="2"></circle><circle cx="382" cy="161" r="2"></circle><circle cx="389" cy="158" r="2"></circle><circle cx="396" cy="156" r="2"></circle><circle cx="402" cy="155" r="2"></circle><circle cx="409" cy="152" r="2"></circle><circle cx="416" cy="150" r="2"></circle><circle cx="422" cy="148" r="2"></circle><circle cx="429" cy="146" r="2"></circle><circle cx="435" cy="143" r="2"></circle><circle cx="442" cy="142" r="2"></circle><circle cx="449" cy="141" r="2"></circle><circle cx="455" cy="139" r="2"></circle><circle cx="462" cy="137" r="2"></circle><circle cx="469" cy="136" r="2"></circle><circle cx="475" cy="134" r="2"></circle><circle cx="482" cy="133" r="2"></circle><circle cx="489" cy="131" r="2"></circle><circle cx="495" cy="130" r="2"></circle><circle cx="502" cy="128" r="2"></circle><circle cx="509" cy="126" r="2"></circle><circle cx="515" cy="125" r="2"></circle><circle cx="522" cy="124" r="2"></circle><circle cx="529" cy="122" r="2"></circle><circle cx="535" cy="121" r="2"></circle><circle cx="542" cy="120" r="2"></circle><circle cx="548" cy="118" r="2"></circle><circle cx="555" cy="116" r="2"></circle><circle cx="562" cy="114" r="2"></circle><circle cx="568" cy="113" r="2"></circle><circle cx="575" cy="111" r="2"></circle><circle cx="582" cy="110" r="2"></circle><circle cx="588" cy="109" r="2"></circle><circle cx="595" cy="108" r="2"></circle><circle cx="602" cy="106" r="2"></circle><circle cx="608" cy="104" r="2"></circle><circle cx="615" cy="102" r="2"></circle><circle cx="622" cy="100" r="2"></circle><circle cx="628" cy="99" r="2"></circle><circle cx="635" cy="98" r="2"></circle><circle cx="642" cy="97" r="2"></circle><circle cx="648" cy="96" r="2"></circle><circle cx="655" cy="94" r="2"></circle><circle cx="661" cy="93" r="2"></circle><circle cx="668" cy="92" r="2"></circle><circle cx="675" cy="91" r="2"></circle><circle cx="681" cy="90" r="2"></circle><circle cx="688" cy="89" r="2"></circle><circle cx="695" cy="88" r="2"></circle><circle cx="701" cy="87" r="2"></circle><circle cx="708" cy="86" r="2"></circle><circle cx="715" cy="84" r="2"></circle><circle cx="721" cy="83" r="2"></circle><circle cx="728" cy="82" r="2"></circle><circle cx="735" cy="80" r="2"></circle><circle cx="741" cy="79" r="2"></circle></g></g></g></g></g><g class="SourcesFooter" style="fill:#777"><g class="clickable" style="fill:#777"><text font-size="12.60" x="15.0" y="581.6"><tspan x="15" y="581.58">Source: European CDC – Situation Update Worldwide – Last updated 11th June, 11:00 (London time)</tspan></text></g><text font-size="12.60" x="601.3" y="581.6"><tspan x="601.27" y="581.58"><a target='_blank' style='fill: #777;' href='https://ourworldindata.org/coronavirus'>OurWorldInData.org/coronavirus</a> • <a style="fill: #777;" class="cclogo" href="http://creativecommons.org/licenses/by/4.0/deed.en_US" target="_blank">CC BY</a></tspan></text></g></svg>